<svg width="247" height="292" viewBox="0 0 247 292" fill="none" xmlns="http://www.w3.org/2000/svg">
<path d="M4.2 246V213.96H11.16L11.46 222.96L10.56 222.6C10.88 220.36 11.54 218.56 12.54 217.2C13.54 215.84 14.76 214.84 16.2 214.2C17.64 213.56 19.22 213.24 20.94 213.24C23.3 213.24 25.28 213.76 26.88 214.8C28.52 215.84 29.76 217.28 30.6 219.12C31.44 220.92 31.86 223.02 31.86 225.42V246H24.18V227.88C24.18 226.08 24 224.56 23.64 223.32C23.28 222.08 22.68 221.14 21.84 220.5C21.04 219.82 19.96 219.48 18.6 219.48C16.56 219.48 14.92 220.2 13.68 221.64C12.48 223.08 11.88 225.16 11.88 227.88V246H4.2ZM53.3334 246.72C50.1334 246.72 47.3534 246.04 44.9934 244.68C42.6334 243.28 40.8134 241.32 39.5334 238.8C38.2534 236.28 37.6134 233.34 37.6134 229.98C37.6134 226.62 38.2534 223.7 39.5334 221.22C40.8134 218.7 42.6134 216.74 44.9334 215.34C47.2934 213.94 50.0334 213.24 53.1534 213.24C56.1934 213.24 58.8534 213.92 61.1334 215.28C63.4534 216.64 65.2334 218.6 66.4734 221.16C67.7134 223.72 68.3334 226.8 68.3334 230.4V232.14H45.5934C45.7534 234.94 46.5134 237.06 47.8734 238.5C49.2734 239.9 51.1134 240.6 53.3934 240.6C55.1134 240.6 56.5334 240.22 57.6534 239.46C58.8134 238.66 59.6134 237.56 60.0534 236.16L67.9134 236.64C67.0334 239.76 65.2934 242.22 62.6934 244.02C60.1334 245.82 57.0134 246.72 53.3334 246.72ZM45.5934 226.98H60.4134C60.2534 224.38 59.5134 222.46 58.1934 221.22C56.8734 219.94 55.1934 219.3 53.1534 219.3C51.1134 219.3 49.4134 219.96 48.0534 221.28C46.7334 222.6 45.9134 224.5 45.5934 226.98ZM88.2567 246.72C85.0967 246.72 82.3167 246.04 79.9167 244.68C77.5567 243.28 75.7167 241.32 74.3967 238.8C73.1167 236.28 72.4767 233.34 72.4767 229.98C72.4767 226.58 73.1167 223.64 74.3967 221.16C75.7167 218.64 77.5567 216.7 79.9167 215.34C82.3167 213.94 85.0967 213.24 88.2567 213.24C91.4167 213.24 94.1767 213.94 96.5367 215.34C98.8967 216.7 100.717 218.64 101.997 221.16C103.317 223.64 103.977 226.58 103.977 229.98C103.977 233.34 103.317 236.28 101.997 238.8C100.717 241.32 98.8967 243.28 96.5367 244.68C94.1767 246.04 91.4167 246.72 88.2567 246.72ZM88.2567 240.48C90.7367 240.48 92.6367 239.56 93.9567 237.72C95.3167 235.88 95.9967 233.3 95.9967 229.98C95.9967 226.7 95.3167 224.14 93.9567 222.3C92.6367 220.42 90.7367 219.48 88.2567 219.48C85.7767 219.48 83.8567 220.42 82.4967 222.3C81.1367 224.14 80.4567 226.7 80.4567 229.98C80.4567 233.3 81.1367 235.88 82.4967 237.72C83.8567 239.56 85.7767 240.48 88.2567 240.48ZM127.123 246.72C124.883 246.72 122.923 246.24 121.243 245.28C119.603 244.32 118.323 242.98 117.403 241.26L117.223 246H109.903V203.4H117.583V218.52C118.463 217.04 119.723 215.8 121.363 214.8C123.003 213.76 124.923 213.24 127.123 213.24C129.883 213.24 132.263 213.94 134.263 215.34C136.303 216.7 137.863 218.64 138.943 221.16C140.063 223.64 140.623 226.58 140.623 229.98C140.623 233.38 140.063 236.34 138.943 238.86C137.863 241.34 136.303 243.28 134.263 244.68C132.263 246.04 129.883 246.72 127.123 246.72ZM125.383 240.48C127.583 240.48 129.343 239.56 130.663 237.72C131.983 235.84 132.643 233.26 132.643 229.98C132.643 226.66 131.983 224.08 130.663 222.24C129.383 220.4 127.643 219.48 125.443 219.48C123.803 219.48 122.383 219.9 121.183 220.74C120.023 221.54 119.123 222.72 118.483 224.28C117.883 225.84 117.583 227.74 117.583 229.98C117.583 232.14 117.883 234.02 118.483 235.62C119.123 237.18 120.023 238.38 121.183 239.22C122.343 240.06 123.743 240.48 125.383 240.48ZM156.352 246.72C152.992 246.72 150.292 245.96 148.252 244.44C146.212 242.88 145.192 240.72 145.192 237.96C145.192 235.2 146.052 233.04 147.772 231.48C149.492 229.92 152.112 228.8 155.632 228.12L166.252 226.02C166.252 223.74 165.732 222.04 164.692 220.92C163.652 219.76 162.112 219.18 160.072 219.18C158.232 219.18 156.772 219.62 155.692 220.5C154.652 221.34 153.932 222.56 153.532 224.16L145.732 223.8C146.372 220.4 147.932 217.8 150.412 216C152.892 214.16 156.112 213.24 160.072 213.24C164.632 213.24 168.072 214.4 170.392 216.72C172.752 219 173.932 222.28 173.932 226.56V238.2C173.932 239.04 174.072 239.62 174.352 239.94C174.672 240.26 175.132 240.42 175.732 240.42H176.752V246C176.512 246.08 176.112 246.14 175.552 246.18C175.032 246.22 174.492 246.24 173.932 246.24C172.612 246.24 171.432 246.04 170.392 245.64C169.352 245.2 168.552 244.46 167.992 243.42C167.432 242.34 167.152 240.88 167.152 239.04L167.812 239.52C167.492 240.92 166.792 242.18 165.712 243.3C164.672 244.38 163.352 245.22 161.752 245.82C160.152 246.42 158.352 246.72 156.352 246.72ZM157.912 241.14C159.632 241.14 161.112 240.8 162.352 240.12C163.592 239.44 164.552 238.5 165.232 237.3C165.912 236.1 166.252 234.68 166.252 233.04V231.24L157.972 232.92C156.252 233.28 155.012 233.82 154.252 234.54C153.532 235.22 153.172 236.12 153.172 237.24C153.172 238.48 153.572 239.44 154.372 240.12C155.212 240.8 156.392 241.14 157.912 241.14ZM191.948 246.72C188.708 246.72 186.128 245.66 184.208 243.54C182.328 241.38 181.388 238.4 181.388 234.6V213.96H189.068V232.68C189.068 235.36 189.508 237.34 190.388 238.62C191.308 239.86 192.688 240.48 194.528 240.48C196.608 240.48 198.208 239.8 199.328 238.44C200.488 237.04 201.068 235.02 201.068 232.38V213.96H208.748V246H201.728L201.548 237.18L202.508 237.48C202.028 240.52 200.888 242.82 199.088 244.38C197.288 245.94 194.908 246.72 191.948 246.72ZM229.622 246.72C226.462 246.72 223.802 246.26 221.642 245.34C219.522 244.42 217.882 243.14 216.722 241.5C215.562 239.86 214.902 238 214.742 235.92L222.602 235.56C222.882 237.24 223.582 238.54 224.702 239.46C225.822 240.38 227.482 240.84 229.682 240.84C231.482 240.84 232.882 240.56 233.882 240C234.922 239.4 235.442 238.48 235.442 237.24C235.442 236.52 235.262 235.92 234.902 235.44C234.542 234.96 233.862 234.54 232.862 234.18C231.862 233.82 230.382 233.46 228.422 233.1C225.142 232.54 222.562 231.86 220.682 231.06C218.802 230.22 217.462 229.18 216.662 227.94C215.902 226.7 215.522 225.16 215.522 223.32C215.522 220.32 216.662 217.9 218.942 216.06C221.262 214.18 224.642 213.24 229.082 213.24C231.962 213.24 234.382 213.72 236.342 214.68C238.302 215.6 239.822 216.88 240.902 218.52C242.022 220.12 242.722 221.96 243.002 224.04L235.262 224.4C235.062 223.32 234.702 222.38 234.182 221.58C233.662 220.78 232.962 220.18 232.082 219.78C231.202 219.34 230.162 219.12 228.962 219.12C227.162 219.12 225.802 219.48 224.882 220.2C223.962 220.92 223.502 221.88 223.502 223.08C223.502 223.92 223.702 224.62 224.102 225.18C224.542 225.74 225.242 226.2 226.202 226.56C227.162 226.88 228.442 227.18 230.042 227.46C233.402 227.98 236.042 228.66 237.962 229.5C239.922 230.3 241.302 231.34 242.102 232.62C242.942 233.86 243.362 235.36 243.362 237.12C243.362 239.16 242.782 240.9 241.622 242.34C240.502 243.78 238.902 244.88 236.822 245.64C234.782 246.36 232.382 246.72 229.622 246.72Z" fill="black"/>
<path d="M14 201V94.2H37.2L38.2 124.2L35.2 123C36.2667 115.533 38.4667 109.533 41.8 105C45.1333 100.467 49.2 97.1333 54 95C58.8 92.8667 64.0667 91.8 69.8 91.8C77.6667 91.8 84.2667 93.5333 89.6 97C95.0667 100.467 99.2 105.267 102 111.4C104.8 117.4 106.2 124.4 106.2 132.4V201H80.6V140.6C80.6 134.6 80 129.533 78.8 125.4C77.6 121.267 75.6 118.133 72.8 116C70.1333 113.733 66.5333 112.6 62 112.6C55.2 112.6 49.7333 115 45.6 119.8C41.6 124.6 39.6 131.533 39.6 140.6V201H14ZM189.759 203.4C182.293 203.4 175.759 201.8 170.159 198.6C164.693 195.4 160.426 190.933 157.359 185.2L156.759 201H132.359V59H157.959V109.4C160.893 104.467 165.093 100.333 170.559 97C176.026 93.5333 182.426 91.8 189.759 91.8C198.959 91.8 206.893 94.1333 213.559 98.8C220.359 103.333 225.559 109.8 229.159 118.2C232.893 126.467 234.759 136.267 234.759 147.6C234.759 158.933 232.893 168.8 229.159 177.2C225.559 185.467 220.359 191.933 213.559 196.6C206.893 201.133 198.959 203.4 189.759 203.4ZM183.959 182.6C191.293 182.6 197.159 179.533 201.559 173.4C205.959 167.133 208.159 158.533 208.159 147.6C208.159 136.533 205.959 127.933 201.559 121.8C197.293 115.667 191.493 112.6 184.159 112.6C178.693 112.6 173.959 114 169.959 116.8C166.093 119.467 163.093 123.4 160.959 128.6C158.959 133.8 157.959 140.133 157.959 147.6C157.959 154.8 158.959 161.067 160.959 166.4C163.093 171.6 166.093 175.6 169.959 178.4C173.826 181.2 178.493 182.6 183.959 182.6Z" fill="black"/>
</svg>
